<svg id="Capa_1" enable-background="new 0 0 507.769 507.769" height="512" viewBox="0 0 507.769 507.769" width="512" xmlns="http://www.w3.org/2000/svg"><g><circle cx="89.604" cy="257.594" r="10.832"/><circle cx="89.604" cy="311.078" r="10.832"/><circle cx="89.604" cy="364.562" r="10.832"/><path d="m354.321 0h-224.636c-11.712 0-22.727 4.543-31.03 12.796l-81.029 75.476c-.065.061-.129.122-.191.185-8.315 8.315-12.894 19.37-12.894 31.129v115.649c0 4.142 3.358 7.5 7.5 7.5s7.5-3.358 7.5-7.5v-115.649c0-.793.039-1.581.102-2.363h76.851c16.999 0 30.829-13.829 30.829-30.828v-71.293c.782-.063 1.569-.102 2.363-.102h224.636c8.124 0 14.733 6.61 14.733 14.734v448.302c0 8.124-6.609 14.734-14.733 14.734h-320.048c-8.125 0-14.734-6.61-14.734-14.734v-212.8c0-4.142-3.358-7.5-7.5-7.5s-7.5 3.358-7.5 7.5v212.8c0 16.395 13.338 29.734 29.734 29.734h320.047c16.395 0 29.733-13.339 29.733-29.734v-448.302c.001-16.396-13.338-29.734-29.733-29.734zm-241.999 86.395c0 8.728-7.101 15.828-15.829 15.828h-71.187c.805-1.073 1.685-2.101 2.646-3.07l81.02-75.468c.065-.061.129-.122.191-.185.996-.996 2.053-1.908 3.16-2.738v65.633z"/><path d="m309.824 250.094h-173.993c-4.142 0-7.5 3.358-7.5 7.5s3.358 7.5 7.5 7.5h173.993c4.142 0 7.5-3.358 7.5-7.5s-3.358-7.5-7.5-7.5z"/><path d="m309.824 303.578h-173.993c-4.142 0-7.5 3.358-7.5 7.5s3.358 7.5 7.5 7.5h173.993c4.142 0 7.5-3.358 7.5-7.5s-3.358-7.5-7.5-7.5z"/><path d="m309.824 357.062h-173.993c-4.142 0-7.5 3.358-7.5 7.5s3.358 7.5 7.5 7.5h173.993c4.142 0 7.5-3.358 7.5-7.5s-3.358-7.5-7.5-7.5z"/><path d="m171.918 175.694h-88.777c-4.142 0-7.5 3.358-7.5 7.5s3.358 7.5 7.5 7.5h88.777c4.142 0 7.5-3.358 7.5-7.5s-3.358-7.5-7.5-7.5z"/><path d="m495.729 157.825h-23.073v-18.052c0-17.181-13.978-31.159-31.159-31.159s-31.159 13.978-31.159 31.159v101.255c0 4.142 3.358 7.5 7.5 7.5s7.5-3.358 7.5-7.5v-68.204h32.317v236.906h-32.317v-138.702c0-4.142-3.358-7.5-7.5-7.5s-7.5 3.358-7.5 7.5v146.203c0 .054.007.106.008.16.003.149.01.298.023.448.009.118.022.234.037.35.016.121.033.241.055.362.026.143.056.284.089.424.013.055.02.11.035.165l21.453 81.472c.05.19.108.378.172.563 1.377 3.944 5.109 6.593 9.286 6.593 4.179 0 7.911-2.651 9.287-6.596.064-.184.122-.371.171-.56l21.454-81.472c.015-.055.022-.11.035-.165.034-.14.064-.281.089-.424.022-.121.04-.241.055-.362.015-.116.028-.232.037-.35.012-.15.019-.299.023-.448.001-.054.008-.106.008-.16v-244.406h15.573v108.253c0 4.142 3.358 7.5 7.5 7.5s7.5-3.358 7.5-7.5v-115.753c.001-4.142-3.357-7.5-7.499-7.5zm-70.391 0v-18.052c0-8.91 7.249-16.159 16.159-16.159s16.159 7.249 16.159 16.159v18.052zm16.159 319.8-13.928-52.894h27.856z"/></g></svg>